<svg xmlns="http://www.w3.org/2000/svg" version="1.1" xmlns:xlink="http://www.w3.org/1999/xlink" width="512" height="512" x="0" y="0" viewBox="0 0 90 90" style="enable-background:new 0 0 512 512" xml:space="preserve" class="hovered-paths"><g><path d="M62.877 74.083a3.187 3.187 0 0 1 0 6.376 3.188 3.188 0 0 1-3.188-3.188 3.197 3.197 0 0 1 3.188-3.188zm0-3.781a6.973 6.973 0 1 0-.005 13.943 6.973 6.973 0 0 0 .005-13.943zM40.133 74.083a3.193 3.193 0 0 1 3.182 3.188 3.186 3.186 0 1 1-6.369 0 3.195 3.195 0 0 1 3.187-3.188zm0-3.781a6.97 6.97 0 0 0-6.973 6.969 6.972 6.972 0 1 0 13.942 0 6.969 6.969 0 0 0-6.969-6.969zM9.018 5.813c-.063 0-.129 0-.191.004-1.881.131-2.429 2.636-.777 3.542l7.473 4.229a2.918 2.918 0 0 1 1.371 1.755l12.438 44.489c1.202 4.297 5.14 7.292 9.598 7.292h31.276c2.521 0 2.521-3.781 0-3.781H38.93a6.167 6.167 0 0 1-5.953-4.521l-.599-2.146h32.771c4.708 0 8.88-3.094 10.246-7.599l4.254-14L82.82 24.63c.735-2.412-2.879-3.51-3.615-1.098l-3.177 10.451-4.25 13.996a6.915 6.915 0 0 1-6.631 4.916H31.32L20.539 14.327a6.712 6.712 0 0 0-3.156-4.03L9.919 6.073a1.877 1.877 0 0 0-.901-.26z" fill="#000000" opacity="1" data-original="#000000" class="hovered-path"></path><path d="M51.236 11.822c7.917 0 14.287 6.386 14.287 14.303 0 7.916-6.37 14.292-14.287 14.292a14.259 14.259 0 0 1-14.291-14.292c.001-7.917 6.37-14.303 14.291-14.303zm0-3.776c-9.962 0-18.072 8.115-18.072 18.079 0 9.958 8.109 18.067 18.072 18.067 9.959 0 18.068-8.109 18.068-18.067.001-9.964-8.109-18.079-18.068-18.079z" fill="#000000" opacity="1" data-original="#000000" class="hovered-path"></path><path d="M58.34 19.125a1.886 1.886 0 0 0-1.452.656l-8.396 9.511c-.043.047-.109.052-.156.005l-2.85-2.776a1.893 1.893 0 0 0-2.693.021 1.894 1.894 0 0 0 .058 2.693l2.85 2.771c1.579 1.536 4.172 1.438 5.625-.213l8.396-9.506c1.093-1.209.249-3.141-1.382-3.162z" fill="#000000" opacity="1" data-original="#000000" class="hovered-path"></path></g></svg>