<svg version="1.2" xmlns="http://www.w3.org/2000/svg" viewBox="0 0 20 20" width="20" height="20">
	<title>icon-import-export</title>
	<style>
		.s0 { fill: #000000 } 
	</style>
	<g>
		<g>
			<path fill-rule="evenodd" class="s0" d="m6.3 10.4q0.1 0.1 0.1 0.2 0.1 0.1 0.1 0.2 0 0.2-0.1 0.3 0 0.1-0.1 0.2l-3.3 3.3 3.3 3.3q0.1 0.2 0.1 0.4 0 0.3-0.1 0.5-0.2 0.1-0.5 0.1-0.2 0-0.4-0.1l-3.8-3.8q0-0.1-0.1-0.2 0-0.1 0-0.2 0-0.1 0-0.3 0.1-0.1 0.1-0.2l3.8-3.7q0.1-0.1 0.2-0.1 0.1-0.1 0.2-0.1 0.2 0 0.3 0.1 0.1 0 0.2 0.1z"/>
			<path fill-rule="evenodd" class="s0" d="m1.5 14.8q0.1 0.1 0.1 0.2 0.1 0.1 0.2 0.2 0.2 0 0.3 0h7.3q0.2 0 0.4-0.2 0.2-0.2 0.2-0.4 0-0.3-0.2-0.5-0.2-0.1-0.4-0.1h-7.3q-0.1 0-0.3 0-0.1 0.1-0.2 0.1 0 0.1-0.1 0.2 0 0.2 0 0.3 0 0.1 0 0.2zm12.1-7.5q-0.1 0.1-0.1 0.2 0 0.1 0.1 0.2 0 0.2 0.1 0.2l3.3 3.3-3.3 3.4q-0.2 0.1-0.2 0.4 0 0.3 0.2 0.5 0.2 0.1 0.5 0.1 0.2 0 0.4-0.2l3.8-3.7q0-0.1 0.1-0.2 0-0.1 0-0.3 0-0.1 0-0.2-0.1-0.1-0.1-0.2l-3.8-3.7q-0.1-0.1-0.2-0.2-0.1 0-0.2 0-0.2 0-0.3 0-0.1 0.1-0.2 0.2-0.1 0-0.1 0.2z"/>
			<path fill-rule="evenodd" class="s0" d="m10 11.5q0.1 0.1 0.2 0.2 0.1 0.1 0.2 0.1 0.1 0.1 0.2 0.1h7.3q0.3 0 0.5-0.2 0.1-0.2 0.1-0.4 0-0.3-0.1-0.5-0.2-0.2-0.5-0.2h-7.3q-0.1 0-0.2 0.1-0.1 0-0.2 0.1-0.1 0.1-0.2 0.2 0 0.1 0 0.3 0 0.1 0 0.2zm-8.8-1.5q0.1 0.3 0.2 0.4 0.2 0.2 0.5 0.2 0.2 0 0.4-0.2 0.2-0.1 0.2-0.4v-6.3h15v2.5q0 0.3 0.2 0.5 0.2 0.2 0.4 0.2 0.3 0 0.5-0.2 0.1-0.2 0.2-0.5v-3.1q-0.1-0.1-0.1-0.2 0-0.1-0.1-0.2-0.1-0.1-0.2-0.2-0.2 0-0.3 0h-16.2q-0.1 0-0.3 0-0.1 0.1-0.2 0.2-0.1 0.1-0.1 0.2 0 0.1-0.1 0.2z"/>
		</g>
	</g>
</svg>