<svg version="1.2" xmlns="http://www.w3.org/2000/svg" viewBox="0 0 20 20" width="20" height="20">
	<title>icon-buy-together</title>
	<defs>
		<clipPath clipPathUnits="userSpaceOnUse" id="cp1">
			<path d="m20 0v20h-20v-20z"/>
		</clipPath>
	</defs>
	<style>
		.s0 { fill: none;stroke: #000000;stroke-linecap: round;stroke-linejoin: round;stroke-width: .8 } 
	</style>
	<g>
		<g id="Clip-Path" clip-path="url(#cp1)">
			<g>
				<path class="s0" d="m12.4 9l-3.4 3.4c-0.4 0.4-1 0.4-1.4 0-0.4-0.4-0.4-1 0-1.4l3.4-3.4c0.4-0.4 1-0.4 1.4 0 0.4 0.4 0.4 1 0 1.4z"/>
				<path class="s0" d="m9.1 12.3c0.1 0.6 0 1.3-0.5 1.7l-3 3.1c-0.8 0.7-2 0.7-2.7 0-0.7-0.7-0.7-1.9 0-2.7l3.1-3c0.4-0.5 1.1-0.6 1.7-0.5l1.5-1.5c-1.5-0.9-3.4-0.7-4.6 0.6l-3.1 3c-1.5 1.5-1.5 4 0 5.5 1.5 1.5 4 1.5 5.5 0l3-3.1c1.3-1.2 1.5-3.1 0.6-4.6z"/>
				<path class="s0" d="m4.9 4.9l0.7 0.7"/>
				<path class="s0" d="m3.7 7.4h1"/>
				<path class="s0" d="m7.4 3.7v1"/>
				<path class="s0" d="m15 15l-0.7-0.7"/>
				<path class="s0" d="m16.2 12.6h-1"/>
				<path class="s0" d="m12.6 16.2v-1"/>
				<path class="s0" d="m14.3 8.3l-0.3 0.3c-0.4 0.5-1.1 0.6-1.7 0.5l-1.5 1.5c1.5 0.9 3.4 0.7 4.6-0.6l3.1-3c1.5-1.5 1.5-4 0-5.5-1.5-1.5-4-1.5-5.5 0l-3 3.1c-1.3 1.2-1.5 3.1-0.6 4.6l1.5-1.5c-0.1-0.6 0-1.3 0.5-1.7l3-3.1c0.8-0.7 2-0.7 2.7 0 0.7 0.7 0.7 1.9 0 2.7l-0.3 0.2"/>
				<path class="s0" d=""/>
			</g>
		</g>
	</g>
</svg>