<svg version="1.2" xmlns="http://www.w3.org/2000/svg" viewBox="0 0 20 20" width="20" height="20">
	<title>icon-more</title>
	<style>
		.s0 { fill: #000000 } 
	</style>
	<g>
		<g>
			<g>
				<path class="s0" d="m4.6 1.5c-1 0-1.9 0.9-1.9 1.9v13.5c0 1 0.9 1.9 1.9 1.9h11c1 0 1.9-0.9 1.9-1.9v-11q0 0 0-0.1-0.1 0-0.1 0 0-0.1 0-0.1-0.1-0.1-0.1-0.1l-4.5-4q0 0 0 0-0.1-0.1-0.1-0.1 0 0-0.1 0 0 0-0.1 0zm0 0.9h7.2v3.7q0 0 0 0.1 0.1 0.1 0.1 0.2 0.1 0 0.2 0.1 0.1 0 0.2 0h4.2v10.4c0 0.5-0.4 1-1 1h-10.9c-0.5 0-0.9-0.5-0.9-1v-13.5c0-0.5 0.4-1 0.9-1zm8.1 0.4l3.2 2.8h-3.2z"/>
				<path class="s0" d="m7.6 8.8q0 0-0.1 0 0 0 0 0-0.1 0-0.1 0.1-0.1 0-0.1 0l-2 2q0 0.1-0.1 0.2 0 0.1 0 0.1 0 0.1 0 0.2 0.1 0.1 0.1 0.2l2 2q0.1 0 0.2 0.1 0.1 0 0.1 0 0.1 0 0.2 0 0.1-0.1 0.2-0.1 0-0.1 0.1-0.2 0-0.1 0-0.2 0-0.1 0-0.1-0.1-0.1-0.1-0.2l-1.7-1.7 1.7-1.6q0-0.1 0.1-0.2 0 0 0-0.1 0-0.1 0-0.2-0.1-0.1-0.1-0.2-0.1 0-0.1 0 0-0.1-0.1-0.1 0 0-0.1 0 0 0-0.1 0zm4.7 0q-0.1 0-0.1 0-0.1 0-0.1 0 0 0-0.1 0.1 0 0-0.1 0 0 0.1-0.1 0.2 0 0.1 0 0.2 0 0.1 0 0.1 0.1 0.1 0.1 0.2l1.7 1.6-1.7 1.7q0 0.1-0.1 0.2 0 0 0 0.1 0 0.1 0 0.2 0.1 0.1 0.1 0.2 0.1 0 0.2 0.1 0.1 0 0.2 0 0.1 0 0.2 0 0-0.1 0.1-0.1l2-2q0.1-0.1 0.1-0.2 0-0.1 0-0.2 0 0 0-0.1 0-0.1-0.1-0.2l-2-2q0 0-0.1 0 0-0.1 0-0.1-0.1 0-0.1 0-0.1 0-0.1 0z"/>
			</g>
			<path class="s0" d="m10.6 7.9q-0.1 0-0.1 0-0.1 0-0.2 0.1 0 0-0.1 0.1 0 0.1 0 0.1l-1.4 5.8q0 0.1 0 0.2 0 0.1 0.1 0.2 0 0.1 0.1 0.1 0.1 0.1 0.2 0.1 0.1 0 0.2 0 0.1 0 0.1-0.1 0.1 0 0.2-0.1 0-0.1 0-0.1l1.4-5.9q0 0 0-0.1 0-0.1-0.1-0.2 0-0.1-0.1-0.1-0.1-0.1-0.2-0.1 0 0 0 0 0 0 0 0 0 0 0 0-0.1 0-0.1 0z"/>
		</g>
	</g>
</svg>