<svg version="1.2" xmlns="http://www.w3.org/2000/svg" viewBox="0 0 20 20" width="20" height="20">
	<title>icon-feedback</title>
	<style>
		.s0 { fill: #000000 } 
	</style>
	<g>
		<g id="Layer 2">
			<path class="s0" d="m13.3 12.1h-2.3l0.5-1.5q0.1-0.4 0.1-0.7-0.1-0.4-0.2-0.7-0.2-0.4-0.5-0.6-0.2-0.2-0.6-0.3-0.2-0.1-0.4-0.1-0.2 0-0.4 0.1-0.2 0.1-0.3 0.3-0.1 0.2-0.2 0.4l-0.1 0.3q-0.1 0.4-0.2 0.8-0.2 0.4-0.4 0.7-0.2 0.4-0.4 0.7-0.3 0.3-0.6 0.6l-0.4 0.4q-0.1-0.1-0.2-0.1-0.1-0.1-0.2-0.2-0.1 0-0.2-0.1-0.1 0-0.2 0h-0.6q-0.2 0-0.4 0.1-0.2 0.1-0.3 0.2-0.2 0.2-0.3 0.4-0.1 0.2-0.1 0.4v4.6q0 0.2 0.1 0.4 0.1 0.2 0.2 0.4 0.2 0.2 0.4 0.2 0.2 0.1 0.4 0.1h0.6q0.1 0 0.2 0 0.2 0 0.3-0.1 0.1-0.1 0.2-0.2 0.1-0.1 0.2-0.2h0.1q0.2 0.2 0.5 0.2 0.3 0.1 0.5 0.2 0.3 0.1 0.5 0.1 0.3 0 0.6 0h2.5q0.4 0 0.7 0 0.3-0.1 0.6-0.3 0.2-0.1 0.5-0.3 0.2-0.2 0.4-0.5 0.2-0.3 0.3-0.6 0.2-0.3 0.3-0.6 0.1-0.3 0.1-0.7 0.1-0.3 0.1-0.6v-1.8q0-0.3-0.1-0.5-0.2-0.3-0.4-0.5-0.2-0.2-0.4-0.3-0.3-0.1-0.5-0.1zm-6.9 5.7q0 0.1 0 0.2 0 0-0.1 0.1 0 0.1-0.1 0.1-0.1 0-0.2 0h-0.5q0 0-0.1 0-0.1 0-0.1-0.1-0.1-0.1-0.1-0.1-0.1-0.1-0.1-0.2v-4.6q0-0.1 0.1-0.1 0-0.1 0.1-0.2 0 0 0.1-0.1 0.1 0 0.1 0h0.6q0 0 0.1 0.1 0.1 0 0.1 0 0.1 0.1 0.1 0.2 0 0 0 0.1zm7.5-2.5q0 0.2 0 0.5-0.1 0.3-0.1 0.6-0.1 0.3-0.2 0.5-0.2 0.3-0.3 0.5-0.1 0.2-0.3 0.3-0.2 0.2-0.4 0.3-0.2 0.1-0.4 0.2-0.2 0-0.5 0h-2.5q-0.2 0-0.5 0-0.2 0-0.4-0.1-0.2 0-0.5-0.1-0.2-0.1-0.4-0.2l-0.3-0.1v-4.4l0.7-0.7q0.3-0.3 0.6-0.7 0.3-0.3 0.5-0.7 0.2-0.4 0.4-0.9 0.2-0.4 0.3-0.9l0.1-0.3q0 0 0 0 0 0 0-0.1 0 0 0.1 0 0 0 0 0 0 0 0.1-0.1 0 0 0 0 0.1 0 0.1 0 0 0.1 0 0.1 0.3 0 0.4 0.2 0.2 0.1 0.3 0.3 0.1 0.2 0.1 0.5 0 0.2 0 0.4l-0.6 2q0 0 0 0.1-0.1 0 0 0.1 0 0 0 0 0 0.1 0 0.1 0 0 0.1 0.1 0 0 0 0 0.1 0 0.1 0 0.1 0.1 0.1 0.1h2.7q0.1 0 0.3 0 0.1 0.1 0.2 0.2 0.1 0 0.1 0.2 0.1 0.1 0.1 0.2zm-6.1-10l-0.2 1.3q0 0.1 0 0.2 0 0.1 0 0.2 0.1 0.1 0.1 0.2 0.1 0.1 0.2 0.2 0.1 0 0.1 0 0.1 0.1 0.1 0.1 0.1 0 0.1 0 0.1 0 0.2 0 0 0 0.1 0 0 0 0.1 0 0 0 0 0 0.1 0 0.1-0.1l1.3-0.6 1.2 0.6q0 0.1 0.2 0.1 0.1 0 0.2 0 0.1 0 0.2 0 0.1-0.1 0.2-0.1 0.1-0.1 0.1-0.2 0.1-0.1 0.2-0.2 0-0.1 0-0.2 0-0.1 0-0.2l-0.2-1.3 0.9-1q0.1 0 0.2-0.1 0-0.1 0.1-0.2 0-0.1 0-0.2 0-0.2-0.1-0.3 0-0.1-0.1-0.2 0-0.1-0.1-0.1-0.1-0.1-0.2-0.1-0.1-0.1-0.2-0.1l-1.3-0.2-0.6-1.2q-0.1-0.2-0.3-0.3-0.2-0.2-0.4-0.2-0.3 0-0.5 0.2-0.2 0.1-0.3 0.3l-0.5 1.2-1.4 0.2q-0.1 0-0.2 0-0.1 0.1-0.2 0.2-0.1 0-0.1 0.1-0.1 0.1-0.1 0.2-0.1 0.1-0.1 0.2 0 0.2 0.1 0.3 0 0.1 0 0.2 0.1 0.1 0.2 0.1zm-0.4-1.5l1.5-0.3q0 0 0.1 0 0 0 0.1 0 0 0 0-0.1 0.1 0 0.1-0.1l0.7-1.3q0-0.1 0.1-0.1 0 0 0 0 0 0 0 0 0.1 0 0.1 0.1l0.7 1.3q0 0.1 0 0.1 0.1 0 0.1 0.1 0 0 0.1 0 0 0 0.1 0l1.5 0.3q0 0 0 0 0 0 0 0 0 0 0 0 0 0 0 0 0 0 0 0 0 0 0 0.1 0 0 0 0 0 0 0 0l-1.1 1.1q0 0 0 0 0 0.1-0.1 0.1 0 0.1 0 0.1 0 0 0 0.1l0.3 1.5q0 0 0 0 0 0 0 0 0 0 0 0.1 0 0 0 0-0.1 0-0.1 0 0 0 0 0 0 0 0 0 0 0 0 0l-1.4-0.7q0-0.1-0.1-0.1 0 0 0 0-0.1 0-0.1 0-0.1 0-0.1 0.1l-1.4 0.7q0 0 0 0 0 0 0 0 0 0 0 0 0 0-0.1 0 0 0 0 0 0-0.1 0-0.1 0 0 0 0 0 0 0 0l0.3-1.5q0-0.1 0-0.1 0 0 0-0.1-0.1 0-0.1-0.1 0 0 0 0l-1.1-1.1q0 0 0 0 0 0 0 0 0-0.1 0-0.1 0 0 0 0 0 0-0.1 0 0 0 0 0 0 0 0 0 0 0 0 0zm-2.2 5.8q0.2 0 0.3-0.1 0.1 0 0.3-0.2 0.1-0.1 0.1-0.2 0-0.2 0-0.4l-0.2-1 0.8-0.8q0.2-0.2 0.2-0.4 0.1-0.2 0-0.4-0.1-0.2-0.2-0.3-0.2-0.1-0.4-0.2l-1.1-0.1-0.5-1q-0.1-0.2-0.2-0.3-0.2-0.1-0.4-0.1-0.2 0-0.4 0.1-0.2 0.1-0.3 0.3l-0.5 1-1.1 0.1q-0.2 0.1-0.3 0.2-0.2 0.1-0.3 0.3 0 0.2 0 0.4 0.1 0.2 0.2 0.4l0.8 0.8-0.2 1q0 0.2 0 0.3 0 0.1 0.1 0.2 0 0 0.1 0.1 0.1 0.1 0.1 0.2 0.1 0 0.2 0.1 0.1 0 0.2 0 0.1 0 0.2 0 0.1 0 0.2-0.1l1-0.5 1 0.5q0 0 0 0.1 0.1 0 0.1 0 0.1 0 0.1 0 0 0 0.1 0zm-1.3-1.4q0 0-0.1 0 0 0 0 0.1 0 0 0 0-0.1 0-0.1 0l-1.1 0.6 0.2-1.3q0 0 0-0.1 0 0 0-0.1 0 0-0.1-0.1 0 0 0 0l-1-0.9 1.3-0.2q0.1 0 0.1 0 0.1-0.1 0.1-0.1 0 0 0 0 0.1-0.1 0.1-0.1l0.6-1.2 0.6 1.2q0 0 0 0.1 0 0 0.1 0 0 0 0 0.1 0.1 0 0.1 0l1.3 0.2-0.9 0.9q0 0-0.1 0 0 0.1 0 0.1 0 0.1 0 0.1 0 0.1 0 0.1l0.2 1.3-1.2-0.6q0 0 0 0 0 0 0 0-0.1-0.1-0.1-0.1 0 0 0 0zm14.9-2.1q0-0.1 0-0.1-0.1-0.1-0.2-0.2-0.1-0.1-0.1-0.1-0.1 0-0.2-0.1l-1.1-0.1-0.5-1q-0.1-0.2-0.3-0.3-0.2-0.1-0.4-0.1-0.2 0-0.4 0.1-0.1 0.1-0.2 0.3l-0.5 1-1.1 0.1q-0.2 0.1-0.4 0.2-0.1 0.1-0.2 0.3-0.1 0.2 0 0.4 0 0.2 0.2 0.4l0.8 0.8-0.2 1q0 0.2 0 0.3 0 0.1 0 0.2 0.1 0 0.1 0.1 0.1 0.1 0.2 0.2 0.1 0 0.2 0.1 0.1 0 0.2 0 0.1 0 0.2 0 0.1 0 0.1-0.1l1-0.5 1 0.5q0 0 0.1 0.1 0 0 0.1 0 0 0 0 0 0.1 0 0.1 0 0.2 0 0.3-0.1 0.2 0 0.3-0.2 0.1-0.1 0.1-0.2 0.1-0.2 0-0.4l-0.1-1 0.7-0.8q0.1-0.1 0.2-0.2 0-0.1 0.1-0.2 0-0.1 0-0.2 0-0.1-0.1-0.2zm-1.6 1.2q0 0 0 0 0 0.1-0.1 0.1 0 0.1 0 0.1 0 0.1 0 0.1l0.2 1.3-1.1-0.6q-0.1 0-0.1 0 0-0.1-0.1-0.1 0 0-0.1 0.1 0 0 0 0l-1.2 0.6 0.3-1.3q0 0-0.1-0.1 0 0 0-0.1 0 0 0-0.1-0.1 0-0.1 0l-0.9-0.9 1.3-0.2q0 0 0.1 0 0-0.1 0-0.1 0.1 0 0.1 0 0-0.1 0-0.1l0.6-1.2 0.6 1.2q0 0 0.1 0.1 0 0 0 0 0 0 0.1 0.1 0 0 0.1 0l1.3 0.2z"/>
		</g>
	</g>
</svg>