<svg xmlns="http://www.w3.org/2000/svg" version="1.1" xmlns:xlink="http://www.w3.org/1999/xlink" width="512" height="512" x="0" y="0" viewBox="0 0 24 24" style="enable-background:new 0 0 512 512" xml:space="preserve" class=""><g><g fill="#000" fill-rule="evenodd" clip-rule="evenodd"><path d="M7.53 12.47a.75.75 0 0 1 0 1.06L3.56 17.5l3.97 3.97a.75.75 0 0 1-1.06 1.06l-4.5-4.5a.75.75 0 0 1 0-1.06l4.5-4.5a.75.75 0 0 1 1.06 0z" fill="#000000" opacity="1" data-original="#000000" class=""></path><path d="M1.75 17.504a.75.75 0 0 1 .75-.75h8.75a.75.75 0 1 1 0 1.5H2.5a.75.75 0 0 1-.75-.75zM16.47 8.47a.75.75 0 0 1 1.06 0l4.5 4.5a.75.75 0 0 1 0 1.06l-4.5 4.5a.75.75 0 1 1-1.06-1.06l3.97-3.97-3.97-3.97a.75.75 0 0 1 0-1.06z" fill="#000000" opacity="1" data-original="#000000" class=""></path><path d="M12 13.504a.75.75 0 0 1 .75-.75h8.75a.75.75 0 0 1 0 1.5h-8.75a.75.75 0 0 1-.75-.75zM1.5 3.75A.75.75 0 0 1 2.25 3h19.5a.75.75 0 0 1 .75.75V7.5a.75.75 0 0 1-1.5 0v-3H3V12a.75.75 0 0 1-1.5 0z" fill="#000000" opacity="1" data-original="#000000" class=""></path></g></g></svg>