<svg xmlns="http://www.w3.org/2000/svg" version="1.1" xmlns:xlink="http://www.w3.org/1999/xlink" width="512" height="512" x="0" y="0" viewBox="0 0 135.47 135.47" style="enable-background:new 0 0 512 512" xml:space="preserve" class=""><g><g stroke-linecap="round"><g stroke-linejoin="round"><path d="M31.607 10.223c-7.137 0-12.983 5.841-12.983 12.977v91.632c0 7.136 5.846 12.977 12.983 12.977h74.152c7.138 0 12.984-5.84 12.984-12.977V40.409a3.18 3.18 0 0 0-1.069-2.378L87.276 11.024a3.18 3.18 0 0 0-2.112-.801zm0 6.36h48.869v24.562a3.18 3.18 0 0 0 3.179 3.178h28.73v70.509c0 3.72-2.898 6.618-6.623 6.618H31.61c-3.726 0-6.624-2.897-6.624-6.618V23.2c0-3.72 2.898-6.618 6.624-6.618zm55.226 2.556 21.19 18.825h-21.19z" paint-order="fill markers stroke" fill="#000000" opacity="1" data-original="#000000" class=""></path><path d="M51.938 59.797a3.175 3.175 0 0 0-2.191.93L36.253 74.219a3.175 3.175 0 0 0 0 4.49l13.494 13.494a3.175 3.175 0 0 0 4.49 0 3.175 3.175 0 0 0 0-4.49L42.989 76.465l11.248-11.248a3.175 3.175 0 0 0 0-4.49 3.175 3.175 0 0 0-2.299-.93zM83.422 59.797a3.175 3.175 0 0 0-2.191.93 3.175 3.175 0 0 0 0 4.49l11.248 11.248L81.23 87.713a3.175 3.175 0 0 0 0 4.49 3.175 3.175 0 0 0 4.49 0L99.215 78.71a3.175 3.175 0 0 0 0-4.49L85.72 60.727a3.175 3.175 0 0 0-2.299-.93z" fill="#000000" opacity="1" data-original="#000000" class=""></path></g><path d="M72.266 53.57a3.175 3.175 0 0 0-3.064 2.459L60.08 95.468a3.175 3.175 0 0 0 2.377 3.809 3.175 3.175 0 0 0 3.809-2.377l9.121-39.441a3.175 3.175 0 0 0-2.377-3.809 3.175 3.175 0 0 0-.744-.08z" fill="#000000" opacity="1" data-original="#000000" class=""></path></g></g></svg>