<svg xmlns="http://www.w3.org/2000/svg" version="1.1" xmlns:xlink="http://www.w3.org/1999/xlink" width="512" height="512" x="0" y="0" viewBox="0 0 682.667 682.665" style="enable-background:new 0 0 512 512" xml:space="preserve" class=""><g><defs><clipPath id="a" clipPathUnits="userSpaceOnUse"><path d="M0 511.999h512V0H0Z" fill="#000000" opacity="1" data-original="#000000"></path></clipPath></defs><g clip-path="url(#a)" transform="matrix(1.33333 0 0 -1.33333 0 682.665)"><path d="m0 0-45.472 156.898c-3.096 10.683-14.265 16.832-24.947 13.736l-153.682-44.54c-5.189-1.504-8.177-6.929-6.672-12.119l14.72-50.794c1.082-3.733 5.194-5.641 8.764-4.105a58.605 58.605 0 0 1 7.227 3.723l9.93 6.02c17.769 10.775 40.923 1.746 46.707-18.214v0c5.785-19.96-8.952-39.97-29.729-40.367l-11.611-.222a58.812 58.812 0 0 1-8.097-.719c-3.839-.611-6.292-4.422-5.21-8.155l15.653-54.011a6.432 6.432 0 0 1 7.969-4.388l54.012 15.654c3.733 1.082 7.545-1.372 8.155-5.211.425-2.67.666-5.376.719-8.098l.222-11.61c.397-20.777 20.407-35.514 40.366-29.728h.001c19.96 5.784 28.988 28.936 18.215 46.706l-6.021 9.93a58.744 58.744 0 0 0-3.723 7.227c-1.537 3.57.372 7.682 4.105 8.763L-4.388-7.97A6.433 6.433 0 0 1 0 0Z" style="stroke-width:15;stroke-linecap:round;stroke-linejoin:round;stroke-miterlimit:10;stroke-dasharray:none;stroke-opacity:1" transform="translate(499.114 333.065)" fill="none" stroke="#000000" stroke-width="15" stroke-linecap="round" stroke-linejoin="round" stroke-miterlimit="10" stroke-dasharray="none" stroke-opacity="" data-original="#000000" class=""></path><path d="m0 0 11.213-3.019a58.585 58.585 0 0 1 7.977-1.564c3.857-.481 7.275 2.496 7.275 6.383v62.667h-62.667c-3.887 0-6.864 3.418-6.382 7.275a58.433 58.433 0 0 0 1.564 7.977l3.018 11.214c5.402 20.066-9.715 39.791-30.497 39.791-20.78 0-35.897-19.725-30.496-39.792l3.019-11.213a58.585 58.585 0 0 0 1.564-7.977c.482-3.857-2.495-7.275-6.382-7.275h-62.667v-169.789c0-11.121 9.016-20.138 20.137-20.138H26.465v62.668c0 3.887-3.418 6.863-7.275 6.382a58.588 58.588 0 0 1-7.977-1.565L0-60.992c-20.067-5.403-39.792 9.715-39.792 30.496S-20.067 5.401 0 0Z" style="stroke-width:15;stroke-linecap:round;stroke-linejoin:round;stroke-miterlimit:10;stroke-dasharray:none;stroke-opacity:1" transform="translate(176.092 132.958)" fill="none" stroke="#000000" stroke-width="15" stroke-linecap="round" stroke-linejoin="round" stroke-miterlimit="10" stroke-dasharray="none" stroke-opacity="" data-original="#000000" class=""></path><path d="M0 0h-57.326c-11.121 0-20.137-9.016-20.137-20.137v-169.789h62.667c3.887 0 6.864 3.418 6.382 7.276a58.601 58.601 0 0 1-1.564 7.976l-3.019 11.213c-5.401 20.067 9.716 39.792 30.497 39.792s35.898-19.725 30.497-39.792l-3.019-11.213a58.754 58.754 0 0 1-1.564-7.976c-.482-3.858 2.495-7.276 6.382-7.276h62.667v62.667c0 3.887 3.417 6.864 7.275 6.382a58.765 58.765 0 0 0 7.977-1.563l11.213-3.019c20.067-5.402 39.791 9.715 39.791 30.496s-19.724 35.898-39.791 30.496l-11.213-3.018a58.771 58.771 0 0 0-7.977-1.565c-3.858-.481-7.275 2.496-7.275 6.383v52.884c0 5.403-4.38 9.783-9.783 9.783H35" style="stroke-width:15;stroke-linecap:round;stroke-linejoin:round;stroke-miterlimit:10;stroke-dasharray:none;stroke-opacity:1" transform="translate(90.094 387.35)" fill="none" stroke="#000000" stroke-width="15" stroke-linecap="round" stroke-linejoin="round" stroke-miterlimit="10" stroke-dasharray="none" stroke-opacity="" data-original="#000000" class=""></path><path d="M0 0v67.681c0 5.402-4.379 9.782-9.783 9.782h-52.884c-3.887 0-6.864-3.418-6.382-7.275a58.738 58.738 0 0 1 1.564-7.977l3.019-11.214c5.401-20.066-9.716-39.79-30.496-39.79h-.001c-20.781 0-35.898 19.724-30.496 39.79l3.019 11.214a58.585 58.585 0 0 1 1.564 7.977c.481 3.857-2.496 7.275-6.383 7.275h-62.667V14.796c0-3.887-3.417-6.864-7.275-6.383a58.618 58.618 0 0 0-7.977 1.565l-11.213 3.018c-20.067 5.402-39.791-9.715-39.791-30.496s19.724-35.898 39.791-30.496l11.213 3.017a58.618 58.618 0 0 0 7.977 1.565c3.858.481 7.275-2.495 7.275-6.382v-62.667h169.788C-9.016-112.463 0-103.447 0-92.325V-35" style="stroke-width:15;stroke-linecap:round;stroke-linejoin:round;stroke-miterlimit:10;stroke-dasharray:none;stroke-opacity:1" transform="translate(392.482 119.962)" fill="none" stroke="#000000" stroke-width="15" stroke-linecap="round" stroke-linejoin="round" stroke-miterlimit="10" stroke-dasharray="none" stroke-opacity="" data-original="#000000" class=""></path></g></g></svg>