<svg width="512" height="512" viewBox="0 0 512 512" fill="none" xmlns="http://www.w3.org/2000/svg">
<rect width="512" height="512" fill="#CCCCCC"/>
<path d="M164 328.105H240.635C240.635 342.437 240.825 351.505 241.204 355.31C241.584 358.989 243.101 362.096 245.757 364.633C248.539 367.169 252.269 368.438 256.948 368.438C260.869 368.438 264.093 367.233 266.623 364.823C269.152 362.413 270.543 359.306 270.796 355.501C271.175 351.696 271.365 344.022 271.365 332.48V283.396C267.571 291.64 261.88 297.855 254.293 302.04C246.705 306.099 237.284 308.128 226.029 308.128C211.992 308.128 199.599 304.323 188.849 296.713C178.1 289.103 171.271 279.971 168.363 269.317C165.454 258.663 164 244.268 164 226.131V201.589C164 180.027 164.822 163.983 166.466 153.455C168.236 142.928 172.663 133.226 179.744 124.347C186.826 115.342 196.627 108.366 209.146 103.42C221.666 98.4732 236.209 96 252.775 96C273.262 96 290.081 98.8537 303.233 104.561C316.385 110.269 326.565 118.513 333.773 129.294C340.981 139.948 345.155 151.172 346.293 162.968C347.431 174.763 348 197.593 348 231.458V274.264C348 310.919 347.494 335.461 346.482 347.891C345.471 360.193 341.045 371.862 333.204 382.897C325.49 393.931 314.994 402.239 301.715 407.819C288.437 413.273 273.072 416 255.621 416C233.996 416 216.291 412.512 202.507 405.536C188.849 398.56 178.986 388.731 172.915 376.048C166.972 363.364 164 347.383 164 328.105ZM240.635 232.029C240.635 244.966 242.279 252.956 245.567 256C248.981 259.044 252.459 260.566 256 260.566C261.311 260.566 265.168 258.663 267.571 254.858C270.1 250.927 271.365 243.317 271.365 232.029V176.285C271.365 162.714 270.164 153.836 267.761 149.65C265.485 145.465 261.627 143.372 256.19 143.372C252.902 143.372 249.487 145.021 245.946 148.319C242.405 151.489 240.635 160.178 240.635 174.383V232.029Z" fill="white"/>
<rect width="120" height="120" transform="translate(392 392)" fill="#999999"/>
<path d="M489.202 493.241L483.725 432.251C483.653 431.448 483.283 430.7 482.688 430.156C482.092 429.612 481.315 429.31 480.508 429.31H469.214V424.216C469.214 414.723 461.491 407 451.999 407C442.507 407 434.785 414.723 434.785 424.216V429.31H423.483C422.677 429.31 421.899 429.612 421.304 430.156C420.708 430.7 420.338 431.448 420.266 432.251L414.768 493.481C414.728 493.927 414.781 494.378 414.925 494.803C415.068 495.228 415.299 495.618 415.601 495.949C415.904 496.28 416.272 496.544 416.683 496.725C417.093 496.906 417.537 497 417.985 497H486.015C486.484 497 486.947 496.897 487.373 496.7C487.798 496.503 488.176 496.216 488.479 495.858C488.782 495.501 489.004 495.081 489.129 494.629C489.254 494.177 489.279 493.703 489.202 493.241ZM441.246 424.216C441.246 418.286 446.07 413.461 451.999 413.461C457.929 413.461 462.754 418.286 462.754 424.216V429.31H441.246V424.216ZM421.519 490.539L426.437 435.77H434.785V441.547C434.785 442.404 435.125 443.226 435.731 443.831C436.337 444.437 437.159 444.778 438.015 444.778C438.872 444.778 439.694 444.437 440.3 443.831C440.905 443.226 441.246 442.404 441.246 441.547V435.77H462.754V441.547C462.754 442.404 463.094 443.226 463.7 443.831C464.306 444.437 465.127 444.778 465.984 444.778C466.841 444.778 467.663 444.437 468.268 443.831C468.874 443.226 469.215 442.404 469.215 441.547V435.77H477.555L482.473 490.539H421.519Z" fill="white"/>
</svg>
